# Blender 5.1.0
# www.blender.org
mtllib armchair.mtl
o Armchair
v -0.125000 -0.125000 -0.360000
v -0.125000 0.125000 -0.360000
v -0.125000 -0.125000 -0.400000
v -0.125000 0.125000 -0.400000
v 0.125000 -0.125000 -0.360000
v 0.125000 0.125000 -0.360000
v 0.125000 -0.125000 -0.400000
v 0.125000 0.125000 -0.400000
v -0.152392 -0.152392 -0.380000
v -0.152392 -0.000000 -0.355617
v -0.152392 0.152392 -0.380000
v -0.152392 -0.000000 -0.404383
v 0.000000 -0.152392 -0.404383
v -0.000000 0.152392 -0.404383
v 0.152392 -0.000000 -0.404383
v 0.152392 -0.152392 -0.380000
v 0.152392 0.152392 -0.380000
v 0.152392 -0.000000 -0.355617
v -0.000000 -0.152392 -0.355617
v 0.000000 0.152392 -0.355617
v -0.209877 0.000000 -0.380000
v 0.000000 0.000000 -0.413580
v 0.209877 0.000000 -0.380000
v -0.000000 0.000000 -0.346420
v -0.000000 -0.209877 -0.380000
v -0.000000 0.209877 -0.380000
v -0.120000 -0.215000 -0.537500
v -0.120000 -0.185000 -0.537500
v -0.120000 -0.215000 -0.762500
v -0.120000 -0.185000 -0.762500
v 0.120000 -0.215000 -0.537500
v 0.120000 -0.185000 -0.537500
v 0.120000 -0.215000 -0.762500
v 0.120000 -0.185000 -0.762500
v -0.146296 -0.218287 -0.650000
v -0.146296 -0.200000 -0.512847
v -0.146296 -0.181713 -0.650000
v -0.146296 -0.200000 -0.787153
v 0.000000 -0.218287 -0.787153
v 0.000000 -0.181713 -0.787153
v 0.146296 -0.200000 -0.787153
v 0.146296 -0.218287 -0.650000
v 0.146296 -0.181713 -0.650000
v 0.146296 -0.200000 -0.512847
v 0.000000 -0.218287 -0.512847
v -0.000000 -0.181713 -0.512847
v -0.201481 -0.200000 -0.650000
v 0.000000 -0.200000 -0.838889
v 0.201481 -0.200000 -0.650000
v -0.000000 -0.200000 -0.461111
v 0.000000 -0.225185 -0.650000
v -0.000000 -0.174815 -0.650000
v -0.200000 -0.375000 -0.195000
v -0.200000 -0.025000 -0.195000
v -0.182679 -0.375000 -0.185000
v -0.182679 -0.025000 -0.185000
v -0.182679 -0.375000 -0.165000
v -0.182679 -0.025000 -0.165000
v -0.200000 -0.375000 -0.155000
v -0.200000 -0.025000 -0.155000
v -0.217321 -0.375000 -0.165000
v -0.217321 -0.025000 -0.165000
v -0.217321 -0.375000 -0.185000
v -0.217321 -0.025000 -0.185000
v 0.200000 -0.375000 -0.195000
v 0.200000 -0.025000 -0.195000
v 0.217321 -0.375000 -0.185000
v 0.217321 -0.025000 -0.185000
v 0.217321 -0.375000 -0.165000
v 0.217321 -0.025000 -0.165000
v 0.200000 -0.375000 -0.155000
v 0.200000 -0.025000 -0.155000
v 0.182679 -0.375000 -0.165000
v 0.182679 -0.025000 -0.165000
v 0.182679 -0.375000 -0.185000
v 0.182679 -0.025000 -0.185000
v -0.200000 0.025000 -0.195000
v -0.200000 0.375000 -0.195000
v -0.182679 0.025000 -0.185000
v -0.182679 0.375000 -0.185000
v -0.182679 0.025000 -0.165000
v -0.182679 0.375000 -0.165000
v -0.200000 0.025000 -0.155000
v -0.200000 0.375000 -0.155000
v -0.217321 0.025000 -0.165000
v -0.217321 0.375000 -0.165000
v -0.217321 0.025000 -0.185000
v -0.217321 0.375000 -0.185000
v 0.200000 0.025000 -0.195000
v 0.200000 0.375000 -0.195000
v 0.217321 0.025000 -0.185000
v 0.217321 0.375000 -0.185000
v 0.217321 0.025000 -0.165000
v 0.217321 0.375000 -0.165000
v 0.200000 0.025000 -0.155000
v 0.200000 0.375000 -0.155000
v 0.182679 0.025000 -0.165000
v 0.182679 0.375000 -0.165000
v 0.182679 0.025000 -0.185000
v 0.182679 0.375000 -0.185000
v -0.250000 0.025000 -0.498000
v -0.250000 0.275000 -0.498000
v -0.234412 0.025000 -0.489000
v -0.234412 0.275000 -0.489000
v -0.234412 0.025000 -0.471000
v -0.234412 0.275000 -0.471000
v -0.250000 0.025000 -0.462000
v -0.250000 0.275000 -0.462000
v -0.265588 0.025000 -0.471000
v -0.265588 0.275000 -0.471000
v -0.265588 0.025000 -0.489000
v -0.265588 0.275000 -0.489000
v -0.260000 -0.100000 -0.592500
v -0.260000 0.100000 -0.592500
v -0.260000 -0.100000 -0.607500
v -0.260000 0.100000 -0.607500
v -0.240000 -0.100000 -0.592500
v -0.240000 0.100000 -0.592500
v -0.240000 -0.100000 -0.607500
v -0.240000 0.100000 -0.607500
v -0.262191 -0.121914 -0.600000
v -0.262191 -0.000000 -0.590857
v -0.262191 0.121914 -0.600000
v -0.262191 0.000000 -0.609144
v -0.250000 -0.121914 -0.609144
v -0.250000 0.121914 -0.609144
v -0.237809 0.000000 -0.609144
v -0.237809 -0.121914 -0.600000
v -0.237809 0.121914 -0.600000
v -0.237809 -0.000000 -0.590857
v -0.250000 -0.121914 -0.590857
v -0.250000 0.121914 -0.590857
v -0.266790 0.000000 -0.600000
v -0.250000 0.000000 -0.612593
v -0.233210 0.000000 -0.600000
v -0.250000 0.000000 -0.587407
v -0.250000 -0.167901 -0.600000
v -0.250000 0.167901 -0.600000
v 0.250000 0.025000 -0.498000
v 0.250000 0.275000 -0.498000
v 0.265588 0.025000 -0.489000
v 0.265588 0.275000 -0.489000
v 0.265588 0.025000 -0.471000
v 0.265588 0.275000 -0.471000
v 0.250000 0.025000 -0.462000
v 0.250000 0.275000 -0.462000
v 0.234412 0.025000 -0.471000
v 0.234412 0.275000 -0.471000
v 0.234412 0.025000 -0.489000
v 0.234412 0.275000 -0.489000
v 0.240000 -0.100000 -0.592500
v 0.240000 0.100000 -0.592500
v 0.240000 -0.100000 -0.607500
v 0.240000 0.100000 -0.607500
v 0.260000 -0.100000 -0.592500
v 0.260000 0.100000 -0.592500
v 0.260000 -0.100000 -0.607500
v 0.260000 0.100000 -0.607500
v 0.237809 -0.121914 -0.600000
v 0.237809 -0.000000 -0.590857
v 0.237809 0.121914 -0.600000
v 0.237809 0.000000 -0.609144
v 0.250000 -0.121914 -0.609144
v 0.250000 0.121914 -0.609144
v 0.262191 0.000000 -0.609144
v 0.262191 -0.121914 -0.600000
v 0.262191 0.121914 -0.600000
v 0.262191 -0.000000 -0.590857
v 0.250000 -0.121914 -0.590857
v 0.250000 0.121914 -0.590857
v 0.233210 0.000000 -0.600000
v 0.250000 0.000000 -0.612593
v 0.266790 0.000000 -0.600000
v 0.250000 0.000000 -0.587407
v 0.250000 -0.167901 -0.600000
v 0.250000 0.167901 -0.600000
vn -0.4219 -0.1432 0.8953
vn -0.4219 0.1432 0.8953
vn -0.4219 0.1432 -0.8953
vn -0.4219 -0.1432 -0.8953
vn -0.0542 -0.0542 -0.9971
vn -0.0542 0.0542 -0.9971
vn 0.0542 0.0542 -0.9971
vn 0.0542 -0.0542 -0.9971
vn 0.4219 -0.1432 -0.8953
vn 0.4219 0.1432 -0.8953
vn 0.4219 0.1432 0.8953
vn 0.4219 -0.1432 0.8953
vn 0.0542 -0.0542 0.9971
vn 0.0542 0.0542 0.9971
vn -0.0542 0.0542 0.9971
vn -0.0542 -0.0542 0.9971
vn -0.1432 -0.4219 -0.8953
vn 0.1432 -0.4219 -0.8953
vn 0.1432 -0.4219 0.8953
vn -0.1432 -0.4219 0.8953
vn 0.1432 0.4219 -0.8953
vn -0.1432 0.4219 -0.8953
vn -0.1432 0.4219 0.8953
vn 0.1432 0.4219 0.8953
vn -0.3428 -0.9312 0.1242
vn -0.3428 0.9312 0.1242
vn -0.3428 0.9312 -0.1242
vn -0.3428 -0.9312 -0.1242
vn -0.1156 -0.9246 -0.3631
vn -0.1156 0.9246 -0.3631
vn 0.1156 0.9246 -0.3631
vn 0.1156 -0.9246 -0.3631
vn 0.3428 -0.9312 -0.1242
vn 0.3428 0.9312 -0.1242
vn 0.3428 0.9312 0.1242
vn 0.3428 -0.9312 0.1242
vn 0.1156 -0.9246 0.3631
vn 0.1156 0.9246 0.3631
vn -0.1156 0.9246 0.3631
vn -0.1156 -0.9246 0.3631
vn -0.0424 -0.9981 -0.0452
vn 0.0424 -0.9981 -0.0452
vn 0.0424 -0.9981 0.0452
vn -0.0424 -0.9981 0.0452
vn 0.0424 0.9981 -0.0452
vn -0.0424 0.9981 -0.0452
vn -0.0424 0.9981 0.0452
vn 0.0424 0.9981 0.0452
vn 0.5000 -0.0000 -0.8660
vn 1.0000 -0.0000 -0.0000
vn 0.5000 -0.0000 0.8660
vn -0.5000 -0.0000 0.8660
vn -0.0000 1.0000 -0.0000
vn -1.0000 -0.0000 -0.0000
vn -0.5000 -0.0000 -0.8660
vn -0.0000 -1.0000 -0.0000
vn -0.9106 -0.0309 0.4122
vn -0.9106 0.0309 0.4122
vn -0.9106 0.0309 -0.4122
vn -0.9106 -0.0309 -0.4122
vn -0.2467 -0.0247 -0.9688
vn -0.2467 0.0247 -0.9688
vn 0.2467 0.0247 -0.9688
vn 0.2467 -0.0247 -0.9688
vn 0.9106 -0.0309 -0.4122
vn 0.9106 0.0309 -0.4122
vn 0.9106 0.0309 0.4122
vn 0.9106 -0.0309 0.4122
vn 0.2467 -0.0247 0.9688
vn 0.2467 0.0247 0.9688
vn -0.2467 0.0247 0.9688
vn -0.2467 -0.0247 0.9688
vn -0.5908 -0.1740 -0.7878
vn 0.5908 -0.1740 -0.7878
vn 0.5908 -0.1740 0.7878
vn -0.5908 -0.1740 0.7878
vn 0.5908 0.1740 -0.7878
vn -0.5908 0.1740 -0.7878
vn -0.5908 0.1740 0.7878
vn 0.5908 0.1740 0.7878
vt 0.375000 0.000000
vt 0.500000 0.000000
vt 0.500000 0.125000
vt 0.375000 0.125000
vt 0.625000 0.000000
vt 0.625000 0.125000
vt 0.625000 0.250000
vt 0.500000 0.250000
vt 0.375000 0.250000
vt 0.500000 0.375000
vt 0.375000 0.375000
vt 0.625000 0.375000
vt 0.625000 0.500000
vt 0.500000 0.500000
vt 0.375000 0.500000
vt 0.500000 0.625000
vt 0.375000 0.625000
vt 0.625000 0.625000
vt 0.625000 0.750000
vt 0.500000 0.750000
vt 0.375000 0.750000
vt 0.500000 0.875000
vt 0.375000 0.875000
vt 0.625000 0.875000
vt 0.625000 1.000000
vt 0.500000 1.000000
vt 0.375000 1.000000
vt 0.125000 0.500000
vt 0.250000 0.500000
vt 0.250000 0.625000
vt 0.125000 0.625000
vt 0.250000 0.750000
vt 0.125000 0.750000
vt 0.750000 0.500000
vt 0.750000 0.625000
vt 0.875000 0.500000
vt 0.875000 0.625000
vt 0.875000 0.750000
vt 0.750000 0.750000
vt 1.000000 0.500000
vt 1.000000 1.000000
vt 0.833333 1.000000
vt 0.833333 0.500000
vt 0.666667 1.000000
vt 0.666667 0.500000
vt 0.500000 1.000000
vt 0.500000 0.500000
vt 0.333333 1.000000
vt 0.333333 0.500000
vt 0.457846 0.370000
vt 0.250000 0.490000
vt 0.042154 0.370000
vt 0.042154 0.130000
vt 0.250000 0.010000
vt 0.457846 0.130000
vt 0.166667 1.000000
vt 0.166667 0.500000
vt -0.000000 1.000000
vt -0.000000 0.500000
vt 0.750000 0.490000
vt 0.957846 0.370000
vt 0.957846 0.130000
vt 0.750000 0.010000
vt 0.542154 0.130000
vt 0.542154 0.370000
s 0
usemtl MAT_LEATHER
f 1/1/1 10/2/1 21/3/1 9/4/1
f 10/2/2 2/5/2 11/6/2 21/3/2
f 21/3/3 11/6/3 4/7/3 12/8/3
f 9/4/4 21/3/4 12/8/4 3/9/4
f 3/9/5 12/8/5 22/10/5 13/11/5
f 12/8/6 4/7/6 14/12/6 22/10/6
f 22/10/7 14/12/7 8/13/7 15/14/7
f 13/11/8 22/10/8 15/14/8 7/15/8
f 7/15/9 15/14/9 23/16/9 16/17/9
f 15/14/10 8/13/10 17/18/10 23/16/10
f 23/16/11 17/18/11 6/19/11 18/20/11
f 16/17/12 23/16/12 18/20/12 5/21/12
f 5/21/13 18/20/13 24/22/13 19/23/13
f 18/20/14 6/19/14 20/24/14 24/22/14
f 24/22/15 20/24/15 2/25/15 10/26/15
f 19/23/16 24/22/16 10/26/16 1/27/16
f 3/28/17 13/29/17 25/30/17 9/31/17
f 13/29/18 7/15/18 16/17/18 25/30/18
f 25/30/19 16/17/19 5/21/19 19/32/19
f 9/31/20 25/30/20 19/32/20 1/33/20
f 8/13/21 14/34/21 26/35/21 17/18/21
f 14/34/22 4/36/22 11/37/22 26/35/22
f 26/35/23 11/37/23 2/38/23 20/39/23
f 17/18/24 26/35/24 20/39/24 6/19/24
f 27/1/25 36/2/25 47/3/25 35/4/25
f 36/2/26 28/5/26 37/6/26 47/3/26
f 47/3/27 37/6/27 30/7/27 38/8/27
f 35/4/28 47/3/28 38/8/28 29/9/28
f 29/9/29 38/8/29 48/10/29 39/11/29
f 38/8/30 30/7/30 40/12/30 48/10/30
f 48/10/31 40/12/31 34/13/31 41/14/31
f 39/11/32 48/10/32 41/14/32 33/15/32
f 33/15/33 41/14/33 49/16/33 42/17/33
f 41/14/34 34/13/34 43/18/34 49/16/34
f 49/16/35 43/18/35 32/19/35 44/20/35
f 42/17/36 49/16/36 44/20/36 31/21/36
f 31/21/37 44/20/37 50/22/37 45/23/37
f 44/20/38 32/19/38 46/24/38 50/22/38
f 50/22/39 46/24/39 28/25/39 36/26/39
f 45/23/40 50/22/40 36/26/40 27/27/40
f 29/28/41 39/29/41 51/30/41 35/31/41
f 39/29/42 33/15/42 42/17/42 51/30/42
f 51/30/43 42/17/43 31/21/43 45/32/43
f 35/31/44 51/30/44 45/32/44 27/33/44
f 34/13/45 40/34/45 52/35/45 43/18/45
f 40/34/46 30/36/46 37/37/46 52/35/46
f 52/35/47 37/37/47 28/38/47 46/39/47
f 43/18/48 52/35/48 46/39/48 32/19/48
usemtl MAT_WOOD
f 53/40/49 54/41/49 56/42/49 55/43/49
f 55/43/50 56/42/50 58/44/50 57/45/50
f 57/45/51 58/44/51 60/46/51 59/47/51
f 59/47/52 60/46/52 62/48/52 61/49/52
f 56/50/53 54/51/53 64/52/53 62/53/53 60/54/53 58/55/53
f 61/49/54 62/48/54 64/56/54 63/57/54
f 63/57/55 64/56/55 54/58/55 53/59/55
f 53/60/56 55/61/56 57/62/56 59/63/56 61/64/56 63/65/56
f 65/40/49 66/41/49 68/42/49 67/43/49
f 67/43/50 68/42/50 70/44/50 69/45/50
f 69/45/51 70/44/51 72/46/51 71/47/51
f 71/47/52 72/46/52 74/48/52 73/49/52
f 68/50/53 66/51/53 76/52/53 74/53/53 72/54/53 70/55/53
f 73/49/54 74/48/54 76/56/54 75/57/54
f 75/57/55 76/56/55 66/58/55 65/59/55
f 65/60/56 67/61/56 69/62/56 71/63/56 73/64/56 75/65/56
f 77/40/49 78/41/49 80/42/49 79/43/49
f 79/43/50 80/42/50 82/44/50 81/45/50
f 81/45/51 82/44/51 84/46/51 83/47/51
f 83/47/52 84/46/52 86/48/52 85/49/52
f 80/50/53 78/51/53 88/52/53 86/53/53 84/54/53 82/55/53
f 85/49/54 86/48/54 88/56/54 87/57/54
f 87/57/55 88/56/55 78/58/55 77/59/55
f 77/60/56 79/61/56 81/62/56 83/63/56 85/64/56 87/65/56
f 89/40/49 90/41/49 92/42/49 91/43/49
f 91/43/50 92/42/50 94/44/50 93/45/50
f 93/45/51 94/44/51 96/46/51 95/47/51
f 95/47/52 96/46/52 98/48/52 97/49/52
f 92/50/53 90/51/53 100/52/53 98/53/53 96/54/53 94/55/53
f 97/49/54 98/48/54 100/56/54 99/57/54
f 99/57/55 100/56/55 90/58/55 89/59/55
f 89/60/56 91/61/56 93/62/56 95/63/56 97/64/56 99/65/56
f 101/40/49 102/41/49 104/42/49 103/43/49
f 103/43/50 104/42/50 106/44/50 105/45/50
f 105/45/51 106/44/51 108/46/51 107/47/51
f 107/47/52 108/46/52 110/48/52 109/49/52
f 104/50/53 102/51/53 112/52/53 110/53/53 108/54/53 106/55/53
f 109/49/54 110/48/54 112/56/54 111/57/54
f 111/57/55 112/56/55 102/58/55 101/59/55
f 101/60/56 103/61/56 105/62/56 107/63/56 109/64/56 111/65/56
f 113/1/57 122/2/57 133/3/57 121/4/57
f 122/2/58 114/5/58 123/6/58 133/3/58
f 133/3/59 123/6/59 116/7/59 124/8/59
f 121/4/60 133/3/60 124/8/60 115/9/60
f 115/9/61 124/8/61 134/10/61 125/11/61
f 124/8/62 116/7/62 126/12/62 134/10/62
f 134/10/63 126/12/63 120/13/63 127/14/63
f 125/11/64 134/10/64 127/14/64 119/15/64
f 119/15/65 127/14/65 135/16/65 128/17/65
f 127/14/66 120/13/66 129/18/66 135/16/66
f 135/16/67 129/18/67 118/19/67 130/20/67
f 128/17/68 135/16/68 130/20/68 117/21/68
f 117/21/69 130/20/69 136/22/69 131/23/69
f 130/20/70 118/19/70 132/24/70 136/22/70
f 136/22/71 132/24/71 114/25/71 122/26/71
f 131/23/72 136/22/72 122/26/72 113/27/72
f 115/28/73 125/29/73 137/30/73 121/31/73
f 125/29/74 119/15/74 128/17/74 137/30/74
f 137/30/75 128/17/75 117/21/75 131/32/75
f 121/31/76 137/30/76 131/32/76 113/33/76
f 120/13/77 126/34/77 138/35/77 129/18/77
f 126/34/78 116/36/78 123/37/78 138/35/78
f 138/35/79 123/37/79 114/38/79 132/39/79
f 129/18/80 138/35/80 132/39/80 118/19/80
f 139/40/49 140/41/49 142/42/49 141/43/49
f 141/43/50 142/42/50 144/44/50 143/45/50
f 143/45/51 144/44/51 146/46/51 145/47/51
f 145/47/52 146/46/52 148/48/52 147/49/52
f 142/50/53 140/51/53 150/52/53 148/53/53 146/54/53 144/55/53
f 147/49/54 148/48/54 150/56/54 149/57/54
f 149/57/55 150/56/55 140/58/55 139/59/55
f 139/60/56 141/61/56 143/62/56 145/63/56 147/64/56 149/65/56
f 151/1/57 160/2/57 171/3/57 159/4/57
f 160/2/58 152/5/58 161/6/58 171/3/58
f 171/3/59 161/6/59 154/7/59 162/8/59
f 159/4/60 171/3/60 162/8/60 153/9/60
f 153/9/61 162/8/61 172/10/61 163/11/61
f 162/8/62 154/7/62 164/12/62 172/10/62
f 172/10/63 164/12/63 158/13/63 165/14/63
f 163/11/64 172/10/64 165/14/64 157/15/64
f 157/15/65 165/14/65 173/16/65 166/17/65
f 165/14/66 158/13/66 167/18/66 173/16/66
f 173/16/67 167/18/67 156/19/67 168/20/67
f 166/17/68 173/16/68 168/20/68 155/21/68
f 155/21/69 168/20/69 174/22/69 169/23/69
f 168/20/70 156/19/70 170/24/70 174/22/70
f 174/22/71 170/24/71 152/25/71 160/26/71
f 169/23/72 174/22/72 160/26/72 151/27/72
f 153/28/73 163/29/73 175/30/73 159/31/73
f 163/29/74 157/15/74 166/17/74 175/30/74
f 175/30/75 166/17/75 155/21/75 169/32/75
f 159/31/76 175/30/76 169/32/76 151/33/76
f 158/13/77 164/34/77 176/35/77 167/18/77
f 164/34/78 154/36/78 161/37/78 176/35/78
f 176/35/79 161/37/79 152/38/79 170/39/79
f 167/18/80 176/35/80 170/39/80 156/19/80
