# Blender 5.1.0
# www.blender.org
mtllib piano.mtl
o Piano
v -0.375000 -0.250000 -0.425000
v -0.375000 0.250000 -0.425000
v -0.375000 -0.250000 -0.575000
v -0.375000 0.250000 -0.575000
v 0.375000 -0.250000 -0.425000
v 0.375000 0.250000 -0.425000
v 0.375000 -0.250000 -0.575000
v 0.375000 0.250000 -0.575000
v -0.457176 -0.304784 -0.500000
v -0.457176 -0.000000 -0.408565
v -0.457176 0.304784 -0.500000
v -0.457176 -0.000000 -0.591435
v 0.000000 -0.304784 -0.591435
v 0.000000 0.304784 -0.591435
v 0.457176 -0.000000 -0.591435
v 0.457176 -0.304784 -0.500000
v 0.457176 0.304784 -0.500000
v 0.457176 -0.000000 -0.408565
v 0.000000 -0.304784 -0.408565
v -0.000000 0.304784 -0.408565
v -0.629630 0.000000 -0.500000
v 0.000000 0.000000 -0.625926
v 0.629630 0.000000 -0.500000
v -0.000000 0.000000 -0.374074
v 0.000000 -0.419753 -0.500000
v -0.000000 0.419753 -0.500000
v -0.700000 0.250000 -0.360000
v -0.700000 0.550000 -0.360000
v -0.700000 0.250000 -0.640000
v -0.700000 0.550000 -0.640000
v 0.100000 0.250000 -0.360000
v 0.100000 0.550000 -0.360000
v 0.100000 0.250000 -0.640000
v 0.100000 0.550000 -0.640000
v -0.550000 -0.530000 -0.210000
v -0.550000 -0.170000 -0.210000
v -0.528787 -0.530000 -0.201213
v -0.528787 -0.170000 -0.201213
v -0.520000 -0.530000 -0.180000
v -0.520000 -0.170000 -0.180000
v -0.528787 -0.530000 -0.158787
v -0.528787 -0.170000 -0.158787
v -0.550000 -0.530000 -0.150000
v -0.550000 -0.170000 -0.150000
v -0.571213 -0.530000 -0.158787
v -0.571213 -0.170000 -0.158787
v -0.580000 -0.530000 -0.180000
v -0.580000 -0.170000 -0.180000
v -0.571213 -0.530000 -0.201213
v -0.571213 -0.170000 -0.201213
v -0.550000 -0.330000 -0.020000
v -0.550000 -0.335858 -0.034142
v -0.550000 -0.350000 -0.040000
v -0.550000 -0.364142 -0.034142
v -0.550000 -0.370000 -0.020000
v -0.537753 -0.335858 -0.027071
v -0.532679 -0.350000 -0.030000
v -0.537753 -0.364142 -0.027071
v -0.537753 -0.335858 -0.012929
v -0.532679 -0.350000 -0.010000
v -0.537753 -0.364142 -0.012929
v -0.550000 -0.335858 -0.005858
v -0.550000 -0.350000 0.000000
v -0.550000 -0.364142 -0.005858
v -0.562247 -0.335858 -0.012929
v -0.567321 -0.350000 -0.010000
v -0.562247 -0.364142 -0.012929
v -0.562247 -0.335858 -0.027071
v -0.567321 -0.350000 -0.030000
v -0.562247 -0.364142 -0.027071
v 0.550000 -0.530000 -0.210000
v 0.550000 -0.170000 -0.210000
v 0.571213 -0.530000 -0.201213
v 0.571213 -0.170000 -0.201213
v 0.580000 -0.530000 -0.180000
v 0.580000 -0.170000 -0.180000
v 0.571213 -0.530000 -0.158787
v 0.571213 -0.170000 -0.158787
v 0.550000 -0.530000 -0.150000
v 0.550000 -0.170000 -0.150000
v 0.528787 -0.530000 -0.158787
v 0.528787 -0.170000 -0.158787
v 0.520000 -0.530000 -0.180000
v 0.520000 -0.170000 -0.180000
v 0.528787 -0.530000 -0.201213
v 0.528787 -0.170000 -0.201213
v 0.550000 -0.330000 -0.020000
v 0.550000 -0.335858 -0.034142
v 0.550000 -0.350000 -0.040000
v 0.550000 -0.364142 -0.034142
v 0.550000 -0.370000 -0.020000
v 0.562247 -0.335858 -0.027071
v 0.567321 -0.350000 -0.030000
v 0.562247 -0.364142 -0.027071
v 0.562247 -0.335858 -0.012929
v 0.567321 -0.350000 -0.010000
v 0.562247 -0.364142 -0.012929
v 0.550000 -0.335858 -0.005858
v 0.550000 -0.350000 0.000000
v 0.550000 -0.364142 -0.005858
v 0.537753 -0.335858 -0.012929
v 0.532679 -0.350000 -0.010000
v 0.537753 -0.364142 -0.012929
v 0.537753 -0.335858 -0.027071
v 0.532679 -0.350000 -0.030000
v 0.537753 -0.364142 -0.027071
v -0.200000 0.320000 -0.210000
v -0.200000 0.680000 -0.210000
v -0.178787 0.320000 -0.201213
v -0.178787 0.680000 -0.201213
v -0.170000 0.320000 -0.180000
v -0.170000 0.680000 -0.180000
v -0.178787 0.320000 -0.158787
v -0.178787 0.680000 -0.158787
v -0.200000 0.320000 -0.150000
v -0.200000 0.680000 -0.150000
v -0.221213 0.320000 -0.158787
v -0.221213 0.680000 -0.158787
v -0.230000 0.320000 -0.180000
v -0.230000 0.680000 -0.180000
v -0.221213 0.320000 -0.201213
v -0.221213 0.680000 -0.201213
v -0.200000 0.520000 -0.020000
v -0.200000 0.514142 -0.034142
v -0.200000 0.500000 -0.040000
v -0.200000 0.485858 -0.034142
v -0.200000 0.480000 -0.020000
v -0.187753 0.514142 -0.027071
v -0.182679 0.500000 -0.030000
v -0.187753 0.485858 -0.027071
v -0.187753 0.514142 -0.012929
v -0.182680 0.500000 -0.010000
v -0.187753 0.485858 -0.012929
v -0.200000 0.514142 -0.005858
v -0.200000 0.500000 0.000000
v -0.200000 0.485858 -0.005858
v -0.212247 0.514142 -0.012929
v -0.217321 0.500000 -0.010000
v -0.212247 0.485858 -0.012929
v -0.212247 0.514142 -0.027071
v -0.217321 0.500000 -0.030000
v -0.212247 0.485858 -0.027071
v -0.700000 -0.581576 -0.655644
v -0.700000 0.143470 -0.993739
v -0.700000 -0.590029 -0.673770
v -0.700000 0.135018 -1.011865
v 0.700000 -0.581576 -0.655644
v 0.700000 0.143470 -0.993739
v 0.700000 -0.590029 -0.673770
v 0.700000 0.135018 -1.011865
v 0.300000 0.002113 -0.728948
v 0.300000 0.195298 -0.780712
v 0.305000 0.003407 -0.724118
v 0.305000 0.196593 -0.775882
v 0.300000 0.004702 -0.719288
v 0.300000 0.197887 -0.771052
v 0.295000 0.003407 -0.724118
v 0.295000 0.196593 -0.775882
v -0.600000 -0.510000 -0.640000
v -0.600000 -0.390000 -0.640000
v -0.600000 -0.510000 -0.660000
v -0.600000 -0.390000 -0.660000
v 0.600000 -0.510000 -0.640000
v 0.600000 -0.390000 -0.640000
v 0.600000 -0.510000 -0.660000
v 0.600000 -0.390000 -0.660000
v -0.550000 -0.445000 -0.660000
v -0.550000 -0.395000 -0.660000
v -0.550000 -0.445000 -0.680000
v -0.550000 -0.395000 -0.680000
v 0.550000 -0.445000 -0.660000
v 0.550000 -0.395000 -0.660000
v 0.550000 -0.445000 -0.680000
v 0.550000 -0.395000 -0.680000
v -0.300000 -0.501573 -0.627435
v -0.300000 -0.491725 -0.629171
v -0.300000 -0.527620 -0.775156
v -0.300000 -0.517772 -0.776892
v 0.300000 -0.501573 -0.627435
v 0.300000 -0.491725 -0.629171
v 0.300000 -0.527620 -0.775156
v 0.300000 -0.517772 -0.776892
v -0.075000 -0.440000 -0.017500
v -0.075000 -0.360000 -0.017500
v -0.075000 -0.440000 -0.022500
v -0.075000 -0.360000 -0.022500
v -0.045000 -0.440000 -0.017500
v -0.045000 -0.360000 -0.017500
v -0.045000 -0.440000 -0.022500
v -0.045000 -0.360000 -0.022500
v -0.015000 -0.440000 -0.017500
v -0.015000 -0.360000 -0.017500
v -0.015000 -0.440000 -0.022500
v -0.015000 -0.360000 -0.022500
v 0.015000 -0.440000 -0.017500
v 0.015000 -0.360000 -0.017500
v 0.015000 -0.440000 -0.022500
v 0.015000 -0.360000 -0.022500
v 0.045000 -0.440000 -0.017500
v 0.045000 -0.360000 -0.017500
v 0.045000 -0.440000 -0.022500
v 0.045000 -0.360000 -0.022500
v 0.075000 -0.440000 -0.017500
v 0.075000 -0.360000 -0.017500
v 0.075000 -0.440000 -0.022500
v 0.075000 -0.360000 -0.022500
v -0.400000 -0.900000 -0.330000
v -0.400000 -0.600000 -0.330000
v -0.400000 -0.900000 -0.370000
v -0.400000 -0.600000 -0.370000
v 0.400000 -0.900000 -0.330000
v 0.400000 -0.600000 -0.330000
v 0.400000 -0.900000 -0.370000
v 0.400000 -0.600000 -0.370000
v -0.350000 -1.000000 -0.195000
v -0.350000 -0.700000 -0.195000
v -0.337010 -1.000000 -0.187500
v -0.337010 -0.700000 -0.187500
v -0.337010 -1.000000 -0.172500
v -0.337010 -0.700000 -0.172500
v -0.350000 -1.000000 -0.165000
v -0.350000 -0.700000 -0.165000
v -0.362990 -1.000000 -0.172500
v -0.362990 -0.700000 -0.172500
v -0.362990 -1.000000 -0.187500
v -0.362990 -0.700000 -0.187500
v 0.350000 -1.000000 -0.195000
v 0.350000 -0.700000 -0.195000
v 0.362990 -1.000000 -0.187500
v 0.362990 -0.700000 -0.187500
v 0.362990 -1.000000 -0.172500
v 0.362990 -0.700000 -0.172500
v 0.350000 -1.000000 -0.165000
v 0.350000 -0.700000 -0.165000
v 0.337010 -1.000000 -0.172500
v 0.337010 -0.700000 -0.172500
v 0.337010 -1.000000 -0.187500
v 0.337010 -0.700000 -0.187500
v -0.350000 -0.800000 -0.195000
v -0.350000 -0.500000 -0.195000
v -0.337010 -0.800000 -0.187500
v -0.337010 -0.500000 -0.187500
v -0.337010 -0.800000 -0.172500
v -0.337010 -0.500000 -0.172500
v -0.350000 -0.800000 -0.165000
v -0.350000 -0.500000 -0.165000
v -0.362990 -0.800000 -0.172500
v -0.362990 -0.500000 -0.172500
v -0.362990 -0.800000 -0.187500
v -0.362990 -0.500000 -0.187500
v 0.350000 -0.800000 -0.195000
v 0.350000 -0.500000 -0.195000
v 0.362990 -0.800000 -0.187500
v 0.362990 -0.500000 -0.187500
v 0.362990 -0.800000 -0.172500
v 0.362990 -0.500000 -0.172500
v 0.350000 -0.800000 -0.165000
v 0.350000 -0.500000 -0.165000
v 0.337010 -0.800000 -0.172500
v 0.337010 -0.500000 -0.172500
v 0.337010 -0.800000 -0.187500
v 0.337010 -0.500000 -0.187500
vn -0.4914 -0.2503 0.8342
vn -0.4914 0.2503 0.8342
vn -0.4914 0.2503 -0.8342
vn -0.4914 -0.2503 -0.8342
vn -0.0674 -0.1011 -0.9926
vn -0.0674 0.1011 -0.9926
vn 0.0674 0.1011 -0.9926
vn 0.0674 -0.1011 -0.9926
vn 0.4914 -0.2503 -0.8342
vn 0.4914 0.2503 -0.8342
vn 0.4914 0.2503 0.8342
vn 0.4914 -0.2503 0.8342
vn 0.0674 -0.1011 0.9926
vn 0.0674 0.1011 0.9926
vn -0.0674 0.1011 0.9926
vn -0.0674 -0.1011 0.9926
vn -0.1482 -0.6548 -0.7411
vn 0.1482 -0.6548 -0.7411
vn 0.1482 -0.6548 0.7411
vn -0.1482 -0.6548 0.7411
vn 0.1482 0.6548 -0.7411
vn -0.1482 0.6548 -0.7411
vn -0.1482 0.6548 0.7411
vn 0.1482 0.6548 0.7411
vn -1.0000 -0.0000 -0.0000
vn -0.0000 -0.0000 -1.0000
vn 1.0000 -0.0000 -0.0000
vn -0.0000 -0.0000 1.0000
vn -0.0000 -1.0000 -0.0000
vn -0.0000 1.0000 -0.0000
vn 0.3827 -0.0000 -0.9239
vn 0.9239 -0.0000 -0.3827
vn 0.9239 -0.0000 0.3827
vn 0.3827 -0.0000 0.9239
vn -0.3827 -0.0000 0.9239
vn -0.9239 -0.0000 0.3827
vn -0.9239 -0.0000 -0.3827
vn -0.3827 -0.0000 -0.9239
vn 0.2157 0.9021 -0.3737
vn 0.2157 -0.9021 -0.3737
vn 0.4706 0.3377 -0.8152
vn 0.4706 -0.3377 -0.8152
vn 0.4315 -0.9021 -0.0000
vn 0.9413 0.3377 -0.0000
vn 0.9413 -0.3377 -0.0000
vn 0.4315 0.9021 -0.0000
vn 0.2157 -0.9021 0.3737
vn 0.4706 0.3377 0.8152
vn 0.4706 -0.3377 0.8152
vn 0.2157 0.9021 0.3737
vn -0.2157 0.9021 0.3737
vn -0.2157 -0.9021 0.3737
vn -0.4706 0.3377 0.8152
vn -0.4706 -0.3377 0.8152
vn -0.9413 -0.3377 -0.0000
vn -0.4315 0.9021 -0.0000
vn -0.4315 -0.9021 -0.0000
vn -0.9413 0.3377 -0.0000
vn -0.4706 -0.3377 -0.8152
vn -0.2157 0.9021 -0.3737
vn -0.2157 -0.9021 -0.3737
vn -0.4706 0.3377 -0.8152
vn -0.0000 -0.4226 -0.9063
vn -0.0000 0.4226 0.9063
vn -0.0000 -0.9063 0.4226
vn -0.0000 0.9063 -0.4226
vn 0.7071 -0.1830 -0.6830
vn 0.7071 0.1830 0.6830
vn -0.0000 0.9659 -0.2588
vn -0.7071 0.1830 0.6830
vn -0.7071 -0.1830 -0.6830
vn -0.0000 -0.9659 0.2588
vn -0.0000 -0.1736 -0.9848
vn -0.0000 0.1736 0.9848
vn -0.0000 -0.9848 0.1736
vn -0.0000 0.9848 -0.1736
vn 0.5000 -0.0000 -0.8660
vn 0.5000 -0.0000 0.8660
vn -0.5000 -0.0000 0.8660
vn -0.5000 -0.0000 -0.8660
vt 0.375000 0.000000
vt 0.500000 0.000000
vt 0.500000 0.125000
vt 0.375000 0.125000
vt 0.625000 0.000000
vt 0.625000 0.125000
vt 0.625000 0.250000
vt 0.500000 0.250000
vt 0.375000 0.250000
vt 0.500000 0.375000
vt 0.375000 0.375000
vt 0.625000 0.375000
vt 0.625000 0.500000
vt 0.500000 0.500000
vt 0.375000 0.500000
vt 0.500000 0.625000
vt 0.375000 0.625000
vt 0.625000 0.625000
vt 0.625000 0.750000
vt 0.500000 0.750000
vt 0.375000 0.750000
vt 0.500000 0.875000
vt 0.375000 0.875000
vt 0.625000 0.875000
vt 0.625000 1.000000
vt 0.500000 1.000000
vt 0.375000 1.000000
vt 0.125000 0.500000
vt 0.250000 0.500000
vt 0.250000 0.625000
vt 0.125000 0.625000
vt 0.250000 0.750000
vt 0.125000 0.750000
vt 0.750000 0.500000
vt 0.750000 0.625000
vt 0.875000 0.500000
vt 0.875000 0.625000
vt 0.875000 0.750000
vt 0.750000 0.750000
vt 0.375000 0.000000
vt 0.625000 0.000000
vt 0.625000 1.000000
vt 0.375000 1.000000
vt 0.125000 0.500000
vt 0.125000 0.750000
vt 0.875000 0.500000
vt 0.875000 0.750000
vt 1.000000 0.500000
vt 1.000000 1.000000
vt 0.875000 1.000000
vt 0.750000 1.000000
vt 0.750000 0.500000
vt 0.500000 1.000000
vt 0.500000 0.500000
vt 0.250000 1.000000
vt 0.250000 0.500000
vt 0.419706 0.419706
vt 0.250000 0.490000
vt 0.080294 0.419706
vt 0.010000 0.250000
vt 0.080294 0.080294
vt 0.250000 0.010000
vt 0.419706 0.080294
vt 0.490000 0.250000
vt 0.125000 1.000000
vt 0.000000 1.000000
vt 0.000000 0.500000
vt 0.750000 0.490000
vt 0.919706 0.419706
vt 0.990000 0.250000
vt 0.919706 0.080294
vt 0.750000 0.010000
vt 0.580294 0.080294
vt 0.510000 0.250000
vt 0.580294 0.419706
vt 0.666667 0.750000
vt 0.583333 1.000000
vt 0.500000 0.750000
vt 0.583333 0.000000
vt 0.666667 0.250000
vt 0.500000 0.250000
vt 0.666667 0.500000
vt 0.416667 0.000000
vt 0.333333 0.250000
vt 0.333333 0.750000
vt 0.333333 0.500000
vt 0.416667 1.000000
vt 0.250000 0.000000
vt 0.166667 0.250000
vt 0.166667 0.750000
vt 0.166667 0.500000
vt 0.083333 1.000000
vt 0.000000 0.750000
vt 0.083333 0.000000
vt 0.000000 0.250000
vt 1.000000 0.250000
vt 1.000000 0.500000
vt 0.833333 0.500000
vt 0.833333 0.250000
vt 1.000000 0.750000
vt 0.916667 1.000000
vt 0.833333 0.750000
vt 0.916667 0.000000
vt 0.750000 1.000000
vt 0.750000 0.000000
vt 0.833333 1.000000
vt 0.666667 1.000000
vt 0.666667 0.500000
vt 0.500000 1.000000
vt 0.500000 0.500000
vt 0.333333 1.000000
vt 0.333333 0.500000
vt 0.457846 0.370000
vt 0.042154 0.370000
vt 0.042154 0.130000
vt 0.457846 0.130000
vt 0.166667 1.000000
vt 0.166667 0.500000
vt -0.000000 1.000000
vt -0.000000 0.500000
vt 0.957846 0.370000
vt 0.957846 0.130000
vt 0.542154 0.130000
vt 0.542154 0.370000
s 0
usemtl MAT_WOOD.001
f 1/1/1 10/2/1 21/3/1 9/4/1
f 10/2/2 2/5/2 11/6/2 21/3/2
f 21/3/3 11/6/3 4/7/3 12/8/3
f 9/4/4 21/3/4 12/8/4 3/9/4
f 3/9/5 12/8/5 22/10/5 13/11/5
f 12/8/6 4/7/6 14/12/6 22/10/6
f 22/10/7 14/12/7 8/13/7 15/14/7
f 13/11/8 22/10/8 15/14/8 7/15/8
f 7/15/9 15/14/9 23/16/9 16/17/9
f 15/14/10 8/13/10 17/18/10 23/16/10
f 23/16/11 17/18/11 6/19/11 18/20/11
f 16/17/12 23/16/12 18/20/12 5/21/12
f 5/21/13 18/20/13 24/22/13 19/23/13
f 18/20/14 6/19/14 20/24/14 24/22/14
f 24/22/15 20/24/15 2/25/15 10/26/15
f 19/23/16 24/22/16 10/26/16 1/27/16
f 3/28/17 13/29/17 25/30/17 9/31/17
f 13/29/18 7/15/18 16/17/18 25/30/18
f 25/30/19 16/17/19 5/21/19 19/32/19
f 9/31/20 25/30/20 19/32/20 1/33/20
f 8/13/21 14/34/21 26/35/21 17/18/21
f 14/34/22 4/36/22 11/37/22 26/35/22
f 26/35/23 11/37/23 2/38/23 20/39/23
f 17/18/24 26/35/24 20/39/24 6/19/24
f 27/40/25 28/41/25 30/7/25 29/9/25
f 29/9/26 30/7/26 34/13/26 33/15/26
f 33/15/27 34/13/27 32/19/27 31/21/27
f 31/21/28 32/19/28 28/42/28 27/43/28
f 29/44/29 33/15/29 31/21/29 27/45/29
f 34/13/30 30/46/30 28/47/30 32/19/30
f 35/48/31 36/49/31 38/50/31 37/46/31
f 37/46/32 38/50/32 40/51/32 39/52/32
f 39/52/33 40/51/33 42/42/33 41/13/33
f 41/13/34 42/42/34 44/53/34 43/54/34
f 43/54/35 44/53/35 46/43/35 45/15/35
f 45/15/36 46/43/36 48/55/36 47/56/36
f 38/57/30 36/58/30 50/59/30 48/60/30 46/61/30 44/62/30 42/63/30 40/64/30
f 47/56/37 48/55/37 50/65/37 49/44/37
f 49/44/38 50/65/38 36/66/38 35/67/38
f 35/68/29 37/69/29 39/70/29 41/71/29 43/72/29 45/73/29 47/74/29 49/75/29
f 71/48/31 72/49/31 74/50/31 73/46/31
f 73/46/32 74/50/32 76/51/32 75/52/32
f 75/52/33 76/51/33 78/42/33 77/13/33
f 77/13/34 78/42/34 80/53/34 79/54/34
f 79/54/35 80/53/35 82/43/35 81/15/35
f 81/15/36 82/43/36 84/55/36 83/56/36
f 74/57/30 72/58/30 86/59/30 84/60/30 82/61/30 80/62/30 78/63/30 76/64/30
f 83/56/37 84/55/37 86/65/37 85/44/37
f 85/44/38 86/65/38 72/66/38 71/67/38
f 71/68/29 73/69/29 75/70/29 77/71/29 79/72/29 81/73/29 83/74/29 85/75/29
f 107/48/31 108/49/31 110/50/31 109/46/31
f 109/46/32 110/50/32 112/51/32 111/52/32
f 111/52/33 112/51/33 114/42/33 113/13/33
f 113/13/34 114/42/34 116/53/34 115/54/34
f 115/54/35 116/53/35 118/43/35 117/15/35
f 117/15/36 118/43/36 120/55/36 119/56/36
f 110/57/30 108/58/30 122/59/30 120/60/30 118/61/30 116/62/30 114/63/30 112/64/30
f 119/56/37 120/55/37 122/65/37 121/44/37
f 121/44/38 122/65/38 108/66/38 107/67/38
f 107/68/29 109/69/29 111/70/29 113/71/29 115/72/29 117/73/29 119/74/29 121/75/29
f 143/40/25 144/41/25 146/7/25 145/9/25
f 145/9/63 146/7/63 150/13/63 149/15/63
f 149/15/27 150/13/27 148/19/27 147/21/27
f 147/21/64 148/19/64 144/42/64 143/43/64
f 145/44/65 149/15/65 147/21/65 143/45/65
f 150/13/66 146/46/66 144/47/66 148/19/66
f 175/40/25 176/41/25 178/7/25 177/9/25
f 177/9/73 178/7/73 182/13/73 181/15/73
f 181/15/27 182/13/27 180/19/27 179/21/27
f 179/21/74 180/19/74 176/42/74 175/43/74
f 177/44/75 181/15/75 179/21/75 175/45/75
f 182/13/76 178/46/76 176/47/76 180/19/76
f 215/48/77 216/49/77 218/106/77 217/98/77
f 217/98/27 218/106/27 220/107/27 219/108/27
f 219/108/78 220/107/78 222/109/78 221/110/78
f 221/110/79 222/109/79 224/111/79 223/112/79
f 218/113/30 216/58/30 226/114/30 224/115/30 222/62/30 220/116/30
f 223/112/25 224/111/25 226/117/25 225/118/25
f 225/118/80 226/117/80 216/119/80 215/120/80
f 215/68/29 217/121/29 219/122/29 221/72/29 223/123/29 225/124/29
f 227/48/77 228/49/77 230/106/77 229/98/77
f 229/98/27 230/106/27 232/107/27 231/108/27
f 231/108/78 232/107/78 234/109/78 233/110/78
f 233/110/79 234/109/79 236/111/79 235/112/79
f 230/113/30 228/58/30 238/114/30 236/115/30 234/62/30 232/116/30
f 235/112/25 236/111/25 238/117/25 237/118/25
f 237/118/80 238/117/80 228/119/80 227/120/80
f 227/68/29 229/121/29 231/122/29 233/72/29 235/123/29 237/124/29
f 239/48/77 240/49/77 242/106/77 241/98/77
f 241/98/27 242/106/27 244/107/27 243/108/27
f 243/108/78 244/107/78 246/109/78 245/110/78
f 245/110/79 246/109/79 248/111/79 247/112/79
f 242/113/30 240/58/30 250/114/30 248/115/30 246/62/30 244/116/30
f 247/112/25 248/111/25 250/117/25 249/118/25
f 249/118/80 250/117/80 240/119/80 239/120/80
f 239/68/29 241/121/29 243/122/29 245/72/29 247/123/29 249/124/29
f 251/48/77 252/49/77 254/106/77 253/98/77
f 253/98/27 254/106/27 256/107/27 255/108/27
f 255/108/78 256/107/78 258/109/78 257/110/78
f 257/110/79 258/109/79 260/111/79 259/112/79
f 254/113/30 252/58/30 262/114/30 260/115/30 258/62/30 256/116/30
f 259/112/25 260/111/25 262/117/25 261/118/25
f 261/118/80 262/117/80 252/119/80 251/120/80
f 251/68/29 253/121/29 255/122/29 257/72/29 259/123/29 261/124/29
usemtl MAT_BRASS.002
f 52/76/39 51/77/39 56/78/39
f 55/79/40 54/80/40 58/81/40
f 53/82/41 52/76/41 56/78/41 57/54/41
f 54/80/42 53/82/42 57/54/42 58/81/42
f 55/83/43 58/81/43 61/84/43
f 57/54/44 56/78/44 59/85/44 60/86/44
f 58/81/45 57/54/45 60/86/45 61/84/45
f 56/78/46 51/87/46 59/85/46
f 55/88/47 61/84/47 64/89/47
f 60/86/48 59/85/48 62/90/48 63/91/48
f 61/84/49 60/86/49 63/91/49 64/89/49
f 59/85/50 51/55/50 62/90/50
f 62/90/51 51/92/51 65/93/51
f 55/94/52 64/89/52 67/95/52
f 63/91/53 62/90/53 65/93/53 66/67/53
f 64/89/54 63/91/54 66/67/54 67/95/54
f 67/96/55 66/97/55 69/98/55 70/99/55
f 65/100/56 51/101/56 68/102/56
f 55/103/57 67/96/57 70/99/57
f 66/97/58 65/100/58 68/102/58 69/98/58
f 70/99/59 69/98/59 53/82/59 54/80/59
f 68/102/60 51/104/60 52/76/60
f 55/105/61 70/99/61 54/80/61
f 69/98/62 68/102/62 52/76/62 53/82/62
f 88/76/39 87/77/39 92/78/39
f 91/79/40 90/80/40 94/81/40
f 89/82/41 88/76/41 92/78/41 93/54/41
f 90/80/42 89/82/42 93/54/42 94/81/42
f 91/83/43 94/81/43 97/84/43
f 93/54/44 92/78/44 95/85/44 96/86/44
f 94/81/45 93/54/45 96/86/45 97/84/45
f 92/78/46 87/87/46 95/85/46
f 91/88/47 97/84/47 100/89/47
f 96/86/48 95/85/48 98/90/48 99/91/48
f 97/84/49 96/86/49 99/91/49 100/89/49
f 95/85/50 87/55/50 98/90/50
f 98/90/51 87/92/51 101/93/51
f 91/94/52 100/89/52 103/95/52
f 99/91/53 98/90/53 101/93/53 102/67/53
f 100/89/54 99/91/54 102/67/54 103/95/54
f 103/96/55 102/97/55 105/98/55 106/99/55
f 101/100/56 87/101/56 104/102/56
f 91/103/57 103/96/57 106/99/57
f 102/97/58 101/100/58 104/102/58 105/98/58
f 106/99/59 105/98/59 89/82/59 90/80/59
f 104/102/60 87/104/60 88/76/60
f 91/105/61 106/99/61 90/80/61
f 105/98/62 104/102/62 88/76/62 89/82/62
f 124/76/39 123/77/39 128/78/39
f 127/79/40 126/80/40 130/81/40
f 125/82/41 124/76/41 128/78/41 129/54/41
f 126/80/42 125/82/42 129/54/42 130/81/42
f 127/83/43 130/81/43 133/84/43
f 129/54/44 128/78/44 131/85/44 132/86/44
f 130/81/45 129/54/45 132/86/45 133/84/45
f 128/78/46 123/87/46 131/85/46
f 127/88/47 133/84/47 136/89/47
f 132/86/48 131/85/48 134/90/48 135/91/48
f 133/84/49 132/86/49 135/91/49 136/89/49
f 131/85/50 123/55/50 134/90/50
f 134/90/51 123/92/51 137/93/51
f 127/94/52 136/89/52 139/95/52
f 135/91/53 134/90/53 137/93/53 138/67/53
f 136/89/54 135/91/54 138/67/54 139/95/54
f 139/96/55 138/97/55 141/98/55 142/99/55
f 137/100/56 123/101/56 140/102/56
f 127/103/57 139/96/57 142/99/57
f 138/97/58 137/100/58 140/102/58 141/98/58
f 142/99/59 141/98/59 125/82/59 126/80/59
f 140/102/60 123/104/60 124/76/60
f 127/105/61 142/99/61 126/80/61
f 141/98/62 140/102/62 124/76/62 125/82/62
f 151/48/67 152/49/67 154/51/67 153/52/67
f 153/52/68 154/51/68 156/53/68 155/54/68
f 154/64/69 152/58/69 158/60/69 156/62/69
f 155/54/70 156/53/70 158/55/70 157/56/70
f 157/56/71 158/55/71 152/66/71 151/67/71
f 151/68/72 153/70/72 155/72/72 157/74/72
f 183/40/25 184/41/25 186/7/25 185/9/25
f 185/9/26 186/7/26 190/13/26 189/15/26
f 189/15/27 190/13/27 188/19/27 187/21/27
f 187/21/28 188/19/28 184/42/28 183/43/28
f 185/44/29 189/15/29 187/21/29 183/45/29
f 190/13/30 186/46/30 184/47/30 188/19/30
f 191/40/25 192/41/25 194/7/25 193/9/25
f 193/9/26 194/7/26 198/13/26 197/15/26
f 197/15/27 198/13/27 196/19/27 195/21/27
f 195/21/28 196/19/28 192/42/28 191/43/28
f 193/44/29 197/15/29 195/21/29 191/45/29
f 198/13/30 194/46/30 192/47/30 196/19/30
f 199/40/25 200/41/25 202/7/25 201/9/25
f 201/9/26 202/7/26 206/13/26 205/15/26
f 205/15/27 206/13/27 204/19/27 203/21/27
f 203/21/28 204/19/28 200/42/28 199/43/28
f 201/44/29 205/15/29 203/21/29 199/45/29
f 206/13/30 202/46/30 200/47/30 204/19/30
usemtl MAT_MARBLE.001
f 159/40/25 160/41/25 162/7/25 161/9/25
f 161/9/26 162/7/26 166/13/26 165/15/26
f 165/15/27 166/13/27 164/19/27 163/21/27
f 163/21/28 164/19/28 160/42/28 159/43/28
f 161/44/29 165/15/29 163/21/29 159/45/29
f 166/13/30 162/46/30 160/47/30 164/19/30
usemtl MAT_LEATHER
f 167/40/25 168/41/25 170/7/25 169/9/25
f 169/9/26 170/7/26 174/13/26 173/15/26
f 173/15/27 174/13/27 172/19/27 171/21/27
f 171/21/28 172/19/28 168/42/28 167/43/28
f 169/44/29 173/15/29 171/21/29 167/45/29
f 174/13/30 170/46/30 168/47/30 172/19/30
usemtl MAT_VELVET.001
f 207/40/25 208/41/25 210/7/25 209/9/25
f 209/9/26 210/7/26 214/13/26 213/15/26
f 213/15/27 214/13/27 212/19/27 211/21/27
f 211/21/28 212/19/28 208/42/28 207/43/28
f 209/44/29 213/15/29 211/21/29 207/45/29
f 214/13/30 210/46/30 208/47/30 212/19/30
